<?xml version="1.0" encoding="UTF-8" standalone="no"?>
<!-- Created with Inkscape (http://www.inkscape.org/) -->

<svg
   width="297mm"
   height="210mm"
   viewBox="0 0 297 210"
   version="1.1"
   id="svg1"
   sodipodi:docname="plantochi_box_v2.svg"
   inkscape:version="1.4.4 (dcaf3e7, 2026-05-05)"
   xmlns:inkscape="http://www.inkscape.org/namespaces/inkscape"
   xmlns:sodipodi="http://sodipodi.sourceforge.net/DTD/sodipodi-0.dtd"
   xmlns="http://www.w3.org/2000/svg"
   xmlns:svg="http://www.w3.org/2000/svg">
  <sodipodi:namedview
     id="namedview1"
     pagecolor="#ffffff"
     bordercolor="#000000"
     borderopacity="0.25"
     inkscape:showpageshadow="2"
     inkscape:pageopacity="0.0"
     inkscape:pagecheckerboard="0"
     inkscape:deskcolor="#d1d1d1"
     inkscape:document-units="mm"
     inkscape:zoom="2"
     inkscape:cx="673.75"
     inkscape:cy="256.25"
     inkscape:window-width="2560"
     inkscape:window-height="1369"
     inkscape:window-x="-8"
     inkscape:window-y="-8"
     inkscape:window-maximized="1"
     inkscape:current-layer="layer7"
     showgrid="true">
    <inkscape:grid
       id="grid2"
       units="mm"
       originx="0"
       originy="0"
       spacingx="1"
       spacingy="0.99999998"
       empcolor="#0099e5"
       empopacity="0.30196078"
       color="#0099e5"
       opacity="0.14901961"
       empspacing="5"
       enabled="true"
       visible="true" />
  </sodipodi:namedview>
  <defs
     id="defs1" />
  <g
     inkscape:label="front"
     inkscape:groupmode="layer"
     id="layer1">
    <path
       id="rect1"
       style="fill:none;stroke:#ff0000;stroke-width:0.294939"
       d="m 5.1474894,5.1474894 v 5.7567546 h 3.9026042 v 8.000028 H 5.1474894 v 16.048117 h 3.9026042 v 8.000028 H 5.1474894 v 16.047599 h 3.852478 v 8.000029 h -3.852478 v 5.852356 H 21.144446 v -3.967717 h 8.000028 v 3.967717 h 16.571082 v -3.967717 h 8.000028 v 3.967717 h 16.571082 v -3.967717 h 8.000028 v 3.967717 h 16.571082 v -3.967717 h 8.000024 v 3.967717 h 16.57109 v -3.967717 h 8.00002 v 3.967717 H 144 v -3.852478 h 8.00002 v 3.852478 h 15.85227 v -5.817733 h -3.95222 v -8.000029 h 3.95222 V 42.98704 h -3.90209 v -8.000028 h 3.90209 v -16.0476 h -3.90209 v -8.000028 h 3.90209 V 5.1474894 h -15.80214 v 3.9026042 h -8.00003 V 5.1474894 h -16.63723 v 5.168e-4 h 0.0558 V 9.147762 h -0.0558 -7.9437 -0.076 V 5.1474894 H 102.8976 V 9.147762 h -0.01 -8.000032 -0.0098 V 5.1474894 H 78.316667 V 9.147762 h -0.0098 -8.000028 -0.0098 V 5.1474894 H 53.735738 V 9.147762 h -0.0098 -8.000029 -0.0098 V 5.1474894 H 29.164628 V 9.147762 H 29.144478 21.14445 V 5.1480062 5.1474894 Z"
       inkscape:label="front" />
  </g>
  <g
     inkscape:groupmode="layer"
     id="layer2"
     inkscape:label="top">
    <path
       id="rect2"
       style="fill:none;stroke:#ff0000;stroke-width:0.103156"
       d="m 184.08747,5.0017619 v 5.9396891 h -4.08812 v 8.000028 h 4.08812 v 16.000057 h -4.08812 v 8.000029 h 4.08812 v 16.03468 h -4.08812 v 7.965405 h 4.08812 v 5.999634 h -0.0873 v 0.05684 h 3.99975 v -3.998205 h 8.00003 v 3.998205 h 10.94197 v -3.998205 h 8.00003 v 3.998205 h 3.80597 v -0.05684 -1.268139 -4.731495 h 4.14858 v -7.965405 h -4.09846 v -16.03468 h 4.09846 v -8.000029 h -3.99872 V 18.941479 h 3.99872 v -8.000028 h -3.99872 V 5.0017619 h -3.90622 V 9.0418254 H 206.9915 V 5.0017619 h -10.94145 v 3.9899373 h -8.00003 V 5.0017619 Z"
       inkscape:label="top" />
    <rect
       style="fill:none;stroke:#ff0000;stroke-width:0.1"
       id="rect33"
       width="17"
       height="25"
       x="192.95"
       y="31.950001"
       inkscape:label="display" />
  </g>
  <g
     inkscape:groupmode="layer"
     id="layer3"
     inkscape:label="bottom">
    <path
       id="rect2-6"
       style="fill:none;stroke:#ff0000;stroke-width:0.103156"
       d="m 233.92076,4.9517298 v 5.9396882 h -4.08812 v 8.000028 h 4.08812 v 16.000057 h -4.08812 v 8.000029 h 4.08812 v 16.03468 h -4.08812 v 7.965405 h 4.08812 v 5.999634 h -0.0873 v 0.05684 h 3.99975 v -3.998205 h 8.00003 v 3.998205 h 10.94197 v -3.998205 h 8.00003 v 3.998205 h 3.80597 v -0.05684 -1.268139 -4.731495 h 4.14858 v -7.965405 h -4.09846 v -16.03468 h 4.09846 v -8.000029 h -3.99872 V 18.891446 h 3.99872 v -8.000028 h -3.99872 V 4.9517298 h -3.90622 v 4.0400628 h -8.00006 V 4.9517298 h -10.94145 v 3.9899368 h -8.00003 V 4.9517298 Z"
       inkscape:label="bottom" />
    <rect
       style="fill:none;stroke:#ff0000;stroke-width:0.1"
       id="rect3"
       width="9"
       height="13"
       x="248.49998"
       y="37"
       inkscape:label="charging port" />
  </g>
  <g
     inkscape:groupmode="layer"
     id="layer7"
     inkscape:label="wall">
    <path
       id="rect22"
       style="fill:none;stroke:#ff0000;stroke-width:0.124901"
       d="m 214.99999,80.000002 v 12.937195 h -4.06228 v 8.000023 h 4.06228 v 13.95109 h 8.00003 v 4.08502 h 8.00003 v -4.08502 h 13.01625 v 4.16925 h 7.9835 v -4.16925 h 7.93853 V 80.000002 Z"
       inkscape:label="wall" />
    <ellipse
       style="fill:none;stroke:#ff0000;stroke-width:0.0494438"
       id="path35"
       cx="-213.44009"
       cy="-13.684834"
       rx="2.4752781"
       ry="1.9752781"
       inkscape:label="LDR"
       transform="scale(-1)" />
    <rect
       style="fill:none;stroke:#ff0000;stroke-width:0.11982"
       id="rect35"
       width="3.8801799"
       height="8.8801804"
       x="-64.88018"
       y="207"
       transform="rotate(-90)"
       inkscape:label="moisture cable" />
    <rect
       style="fill:none;stroke:#ff0000;stroke-width:0.180036"
       id="rect35-8"
       width="8.8199644"
       height="8.8199644"
       x="-107.9668"
       y="221.15073"
       transform="rotate(-90)"
       inkscape:label="moisture cable" />
  </g>
  <g
     inkscape:groupmode="layer"
     id="layer8"
     inkscape:label="hook 1">
    <path
       id="rect36"
       style="fill:none;stroke:#ff0000;stroke-width:0.1"
       inkscape:label="hook"
       d="m 141.76758,80.000042 v 3.97651 h -0.0238 v 26.973538 h -1.14721 l 3.82508,3.82509 3.82509,-3.82509 h -1.52962 V 85.000262 h 32.14326 v -5.2e-4 h 17.96428 v 4.99969 h -5.15731 v 3.94343 h 5.15731 v 0.0072 h 5.05705 v -9.93738 h -0.0217 v -4.01268 h -22.99963 z" />
    <path
       id="rect36-2"
       style="fill:none;stroke:#ff0000;stroke-width:0.1"
       inkscape:label="hook"
       d="m 152.05843,96.214042 v 3.976498 h -0.0238 v 26.97355 h -1.14722 l 3.82509,3.82509 3.82509,-3.82509 h -1.52962 v -25.94984 h 23.59701 v -5.1e-4 h 16.51062 v 4.99969 h -5.15731 v 3.94343 h 5.15731 v 0.007 h 5.05705 v -9.93738 h -0.0217 v -4.012158 h -21.54597 z" />
    <path
       id="rect36-2-3"
       style="fill:none;stroke:#ff0000;stroke-width:0.1"
       inkscape:label="hook"
       d="m 161.00879,113.26365 v 3.9765 h -0.0243 v 26.97355 h -1.14722 l 3.82509,3.82509 3.82509,-3.82509 h -1.52962 v -25.94984 h 19.64738 v -5.2e-4 h 10.46086 v 4.9997 h -5.15731 v 3.94343 h 5.15731 v 0.007 h 5.05705 v -9.93738 h -0.0217 v -4.01216 l -15.49621,-5.1e-4 z" />
    <path
       id="rect36-5"
       style="fill:none;stroke:#ff0000;stroke-width:0.1"
       inkscape:label="hook"
       d="m 6.4073819,80.000242 v 3.97651 h -0.0238 v 26.973538 h -1.14721 l 3.82508,3.82509 3.8250901,-3.82509 h -1.52962 V 85.00046 h 32.14326 v -5.18e-4 h 17.964283 v 4.999688 h -5.15731 v 3.94343 h 5.15731 v 0.007 h 5.05705 v -9.937378 h -0.0217 v -4.01268 H 43.500182 Z" />
    <path
       id="rect36-2-7"
       style="fill:none;stroke:#ff0000;stroke-width:0.1"
       inkscape:label="hook"
       d="m 16.698232,96.21424 v 3.9765 h -0.0238 v 26.97355 h -1.14722 l 3.82509,3.82509 3.82509,-3.82509 h -1.52962 v -25.94984 h 23.59701 v -5.1e-4 h 16.510623 v 4.99969 h -5.15731 v 3.94343 h 5.15731 v 0.007 h 5.05705 v -9.93738 h -0.0217 V 96.21452 H 45.244782 Z" />
    <path
       id="rect36-2-3-6"
       style="fill:none;stroke:#ff0000;stroke-width:0.1"
       inkscape:label="hook"
       d="m 25.648592,113.26385 v 3.9765 h -0.0243 v 26.97355 h -1.14722 l 3.82509,3.82509 3.82509,-3.82509 h -1.52962 v -25.94984 h 19.647383 v -5.2e-4 h 10.46086 v 4.9997 h -5.15731 v 3.94343 h 5.15731 v 0.007 h 5.05705 v -9.93738 h -0.0217 v -4.01216 l -15.49621,-5.1e-4 z" />
    <path
       id="rect36-5-7"
       style="fill:none;stroke:#ff0000;stroke-width:0.1"
       inkscape:label="hook"
       d="m 71.407382,80.000242 v 3.97651 h -0.0238 v 26.973538 h -1.14721 l 3.82508,3.82509 3.82509,-3.82509 h -1.52962 V 85.00046 h 32.143258 v -5.18e-4 h 17.96428 v 4.999688 h -5.15731 v 3.943429 h 5.15731 v 0.007 h 5.05705 v -9.937377 h -0.0217 v -4.01268 h -22.99963 z" />
    <path
       id="rect36-2-7-9"
       style="fill:none;stroke:#ff0000;stroke-width:0.1"
       inkscape:label="hook"
       d="m 81.698232,96.214239 v 3.976501 h -0.0238 v 26.97355 h -1.14722 l 3.82509,3.82509 3.82509,-3.82509 h -1.52962 v -25.94984 h 23.597008 v -5.1e-4 h 16.51062 v 4.99969 h -5.15731 v 3.94343 h 5.15731 v 0.007 h 5.05705 v -9.93738 h -0.0217 v -4.012161 h -21.54597 z" />
    <path
       id="rect36-2-3-6-5"
       style="fill:none;stroke:#ff0000;stroke-width:0.1"
       inkscape:label="hook"
       d="m 90.648592,113.26385 v 3.9765 h -0.0243 v 26.97355 h -1.14722 l 3.82509,3.82509 3.82509,-3.82509 h -1.52962 v -25.94984 h 19.647378 v -5.2e-4 h 10.46086 v 4.9997 h -5.15731 v 3.94343 h 5.15731 v 0.007 h 5.05705 v -9.93738 h -0.0217 v -4.01216 l -15.49621,-5.1e-4 z" />
    <rect
       style="fill:none;stroke:#ff0000;stroke-width:0.111077"
       id="rect41"
       width="10.215528"
       height="4.9319162"
       x="187.78447"
       y="60"
       inkscape:label="hook mount" />
    <rect
       style="fill:none;stroke:#ff0000;stroke-width:0.111077"
       id="rect41-9"
       width="10.215528"
       height="4.9319162"
       x="187.78447"
       y="13"
       inkscape:label="hook mount" />
  </g>
</svg>
